_________________________  Visit us at _________________________
  
http://p2pdl.com  ____________________________  http://p2pdl.com


Snitch 2013 BRRip 480p x264 AAC - VYTO


Genre: Drama | Thriller
Plot: A father goes undercover for the DEA in order to free his son who was imprisoned after being
set up in drug deal. 
Director: Ric Roman Waugh
Stars: Dwayne Johnson, Jon Bernthal, Susan Sarandon.
Rated: PG-13 for drug content and sequences of violence.


Info: 
http://www.imdb.com/title/tt0882977/

Trailer:


Format                         : MPEG-4
File size                      : 353 MiB
Duration                       : 1h 51mn
Overall bit rate               : 442 Kbps
Source                         : 720p.BluRay.x264-AN0NYM0US

Video
Format                         : AVC
Bit rate                       : 399 Kbps
Width                          : 720 pixels
Height                         : 304 pixels
Display aspect ratio           : 2.35:1
Frame rate mode                : Constant
Frame rate                     : 23.976 fps
Stream size                    : 319 MiB (90%)
Writing library                : x264 core 130 r2273

Audio
Format                         : AAC
Bit rate mode                  : Variable
Bit rate                       : 40.0 Kbps
Channel(s)                     : 2 channels
Channel positions              : Front: L R
Sampling rate                  : 48.0 KHz
Stream size                    : 32.0 MiB (9%)
Language                       : English

Subtitle                       : N/a
 
http://www.ultraimg.com/images/VpMNL.png 
http://www.ultraimg.com/images/hvzZL.png 
http://www.ultraimg.com/images/j2y4M.png 
http://www.ultraimg.com/images/QyzZ2.png 
http://www.ultraimg.com/images/B8cK4.png 
http://www.ultraimg.com/images/iKAuI.png 
http://www.ultraimg.com/images/Dxcu3.png 
http://www.ultraimg.com/images/NgkLP.png

----------------------------------------------------------------------------------------------------


Encoded using revolutionary 10bit encoding, which enables us to provide you more crispier 
and sharper images at small sizes, just make sure you follow our instructions without a fault.
Recommend to you to use latest version of VLC player. Install K-Lite Codec Pack or shark007 codecs
in case of any kind of problem in playback (For non-VLC Media Player users). Alternatively, install
Core AVC codecs, the fastest decoder that there is coupled with Community Center Codec Pack and play
on Windows Media Player Classic. Check sample to be sure.
Enjoy!

Encoder Notes:Looking For Early Access To Anything You Can Provide DVDScr, R5, DVDR, BluRay, Direct
Audio, Music Releases and Seedboxes. We require dedicated servers, so as to do more 
and fast releases of movies.
If You Got anything to offer please contact us at "contact@p2pdl.com".

Face book Fan Page:   
http://www.fb.me/p2pdl